<?xml version="1.0" encoding="UTF-8"?>
<svg version="1.1" xmlns="http://www.w3.org/2000/svg" width="296" height="143">
<path d="M0 0 C97.68 0 195.36 0 296 0 C296 47.19 296 94.38 296 143 C198.32 143 100.64 143 0 143 C0 95.81 0 48.62 0 0 Z " fill="#FDFDFE" transform="translate(0,0)"/>
<path d="M0 0 C5.98308286 4.1631337 10.92309683 9.90860057 13.7421875 16.6796875 C13.7421875 17.9996875 13.7421875 19.3196875 13.7421875 20.6796875 C11.49783305 21.71485098 9.24811883 22.73283727 6.9921875 23.7421875 C6.35796875 24.03673828 5.72375 24.33128906 5.0703125 24.63476562 C2.44188304 25.79839325 0.34933391 26.7230551 -2.5546875 26.515625 C-5.30453129 25.16593103 -7.13522973 22.85533484 -9.2578125 20.6796875 C-13.7254388 17.94267855 -18.16596945 18.04418783 -23.2578125 18.6796875 C-28.11635414 20.37879942 -31.42049348 23.42370898 -34.2578125 27.6796875 C-35.27537847 30.73238542 -35.35516323 32.98582763 -35.4453125 36.1796875 C-35.69140625 39.13671875 -35.69140625 39.13671875 -36.2578125 41.6796875 C-39.25088408 44.06053989 -41.23345478 44.51293159 -44.9453125 45.1171875 C-47.2578125 44.6796875 -47.2578125 44.6796875 -48.9453125 43.0546875 C-53.06961257 35.59166832 -53.60099284 27.12109421 -51.5703125 18.89453125 C-47.65773691 8.34687954 -41.21542396 1.43863053 -31.06640625 -3.35546875 C-20.33885076 -7.48145163 -9.78021868 -5.71922823 0 0 Z " fill="#026DBC" transform="translate(64.2578125,25.3203125)"/>
<path d="M0 0 C-0.49966733 6.14847051 -3.23594068 11.08371431 -5.953125 16.5078125 C-6.45036072 17.51085419 -6.94759644 18.51389587 -7.4598999 19.54733276 C-8.51166799 21.66233206 -9.5676111 23.77525963 -10.62744141 25.88623047 C-12.24430638 29.11363504 -13.83955866 32.35111463 -15.43359375 35.58984375 C-16.45963969 37.64648132 -17.48694172 39.7024928 -18.515625 41.7578125 C-19.22685516 43.20790207 -19.22685516 43.20790207 -19.95245361 44.68728638 C-24.28313388 53.23056176 -24.28313388 53.23056176 -29 56 C-32.5 56.5625 -32.5 56.5625 -36 56 C-41.3688881 51.80250567 -43.78300657 46.03818497 -46.6875 40 C-47.17283203 39.01515625 -47.65816406 38.0303125 -48.15820312 37.015625 C-54.63001813 23.80419576 -54.63001813 23.80419576 -54 17 C-51.67128326 13.80496884 -48.66655522 12.95421176 -45 11.75 C-43.948125 11.39421875 -42.89625 11.0384375 -41.8125 10.671875 C-39 10 -39 10 -36 11 C-37.58143471 12.43958847 -39.16522779 13.87658645 -40.75 15.3125 C-41.63171875 16.11300781 -42.5134375 16.91351563 -43.421875 17.73828125 C-46 20 -46 20 -48.265625 21.60546875 C-50.29344722 22.9783778 -50.29344722 22.9783778 -51 26 C-43.55574905 24.25194159 -38.21064401 21.52882091 -32.1875 16.875 C-30.62150559 15.71038351 -29.05509646 14.54632448 -27.48828125 13.3828125 C-25.99162467 12.25595548 -24.49550105 11.12839012 -23 10 C-9.69435216 0 -9.69435216 0 0 0 Z " fill="#0D88D1" transform="translate(78,62)"/>
<path d="M0 0 C1.62131836 -0.0309375 1.62131836 -0.0309375 3.27539062 -0.0625 C13.43155976 -0.11237683 13.43155976 -0.11237683 18.1875 3.25 C19.0625 5.4375 19.0625 5.4375 19.1875 7.25 C14.46905469 11.70002791 10.11736466 13.69140751 3.984375 15.66015625 C3.10654358 15.95433945 2.22871216 16.24852264 1.32427979 16.55162048 C-1.46729271 17.48457644 -4.26443986 18.39920738 -7.0625 19.3125 C-9.84495378 20.23296919 -12.6260909 21.15726424 -15.40643311 22.08409119 C-17.13024505 22.65740545 -18.8554567 23.22653617 -20.58233643 23.7905426 C-25.68636059 25.47237987 -30.67503848 27.34476837 -35.64717102 29.384552 C-38.30819093 30.44811988 -40.98725333 31.30386031 -43.75 32.0625 C-44.64589844 32.31644531 -45.54179688 32.57039063 -46.46484375 32.83203125 C-48.8125 33.25 -48.8125 33.25 -51.8125 32.25 C-50.47906606 29.58313213 -49.41451718 29.57207075 -46.62255859 28.63354492 C-45.73007416 28.32950241 -44.83758972 28.0254599 -43.9180603 27.71220398 C-42.94220978 27.38823135 -41.96635925 27.06425873 -40.9609375 26.73046875 C-39.95471344 26.39002029 -38.94848938 26.04957184 -37.91177368 25.69880676 C-34.67265084 24.60473327 -31.43016246 23.52103201 -28.1875 22.4375 C-26.05446044 21.71877248 -23.92164512 20.99937908 -21.7890625 20.27929688 C-19.70057041 19.57537372 -17.61202933 18.8715959 -15.5234375 18.16796875 C-14.50368835 17.82410126 -13.48393921 17.48023376 -12.43328857 17.12594604 C-7.99434194 15.6339445 -3.55416854 14.15698848 0.91699219 12.76416016 C1.61142426 12.54448074 2.30585632 12.32480133 3.02133179 12.09846497 C4.80209213 11.53825267 6.58713958 10.99171589 8.37255859 10.4465332 C11.40180301 9.15890728 13.04827773 7.72025379 15.1875 5.25 C9.58925425 3.71683411 6.23453619 5.00724039 1.125 7.1875 C-7.23291663 10.68742609 -7.23291663 10.68742609 -11.8125 10.25 C-10.8125 7.25 -10.8125 7.25 -8.96484375 6.30078125 C-6.9140625 5.6171875 -4.86328125 4.93359375 -2.8125 4.25 C-12.0019392 3.2131385 -19.15117878 6.95176091 -27.3125 10.625 C-28.83118059 11.29355699 -30.35056624 11.96051437 -31.87060547 12.62597656 C-35.98125257 14.43006824 -40.08302305 16.25355872 -44.18347168 18.08068848 C-51.52106659 21.34422665 -58.87479116 24.5713995 -66.22583008 27.80450439 C-68.89170088 28.97980852 -71.55450539 30.16182889 -74.21679688 31.34521484 C-75.87626497 32.07918547 -77.53576848 32.81307604 -79.1953125 33.546875 C-80.30430405 34.04288712 -80.30430405 34.04288712 -81.43569946 34.54891968 C-95.71062548 40.84050399 -95.71062548 40.84050399 -101.8125 40.25 C-99.42676621 38.35786631 -97.74074652 37.22608217 -94.8125 36.25 C-94.78671875 35.53714844 -94.7609375 34.82429688 -94.734375 34.08984375 C-94.31255082 26.96676733 -93.5264078 21.98335235 -88.3203125 16.75 C-83.46405513 12.49775474 -79.54541006 11.90137501 -73.31640625 11.96484375 C-68.58712883 12.50343541 -65.81301045 15.12821556 -62.75 18.5625 C-62.110625 19.119375 -61.47125 19.67625 -60.8125 20.25 C-55.72991063 19.88930797 -51.04915799 17.30248524 -46.4609375 15.25 C-45.56508942 14.85425781 -44.66924133 14.45851563 -43.74624634 14.05078125 C-40.8912098 12.78858142 -38.03925883 11.51958572 -35.1875 10.25 C-32.3280506 8.98169583 -29.46798114 7.71481072 -26.60733032 6.44921875 C-24.82914028 5.66201934 -23.05174796 4.87301497 -21.27523804 4.08203125 C-20.47075226 3.72496094 -19.66626648 3.36789063 -18.83740234 3 C-18.13078461 2.68546875 -17.42416687 2.3709375 -16.69613647 2.046875 C-11.16819099 -0.29172994 -5.92065142 0.02794408 0 0 Z " fill="#1B93D5" transform="translate(121.8125,30.75)"/>
<path d="M0 0 C3.96262891 2.05469647 7.07552893 4.6256103 10 8 C10 8.66 10 9.32 10 10 C5.76617685 11.85604731 1.53031693 13.70733366 -2.70751953 15.55419922 C-4.14949913 16.18342077 -5.59090897 16.81394967 -7.03173828 17.44580078 C-9.10041003 18.35271331 -11.17107151 19.25493595 -13.2421875 20.15625 C-13.88807831 20.44060913 -14.53396912 20.72496826 -15.19943237 21.01794434 C-19.77225659 23 -19.77225659 23 -22 23 C-23.69316536 17.92050393 -23.57520786 14.283156 -21.375 9.375 C-16.23737168 1.25718158 -9.30394909 -1.05957611 0 0 Z " fill="#F8FBFD" transform="translate(51,43)"/>
<path d="M0 0 C4.52704749 2.14439092 4.52704749 2.14439092 6 5 C6.49300439 9.37872714 6.34677925 13.61388473 6 18 C6.99 18 7.98 18 9 18 C9 19.98 9 21.96 9 24 C5.37471432 24.20140476 3.13498292 23.85776765 0 22 C-0.99 22.66 -1.98 23.32 -3 24 C-5.15625 24.08203125 -5.15625 24.08203125 -7.5 23.8125 C-8.2734375 23.73644531 -9.046875 23.66039063 -9.84375 23.58203125 C-12.40252841 22.8913465 -13.3990686 22.09121664 -15 20 C-15.5 17.0625 -15.5 17.0625 -15 14 C-13.125 11.625 -13.125 11.625 -10 10 C-6.6379798 9.68176297 -3.36542941 9.76474668 0 10 C-0.66 8.68 -1.32 7.36 -2 6 C-3.98 6 -5.96 6 -8 6 C-8.33 6.99 -8.66 7.98 -9 9 C-10.98 9 -12.96 9 -15 9 C-14.72608098 5.7129718 -14.18168017 4.21006769 -12 1.6875 C-7.87267875 -0.63411821 -4.6276333 -0.87681473 0 0 Z " fill="#0E0E0E" transform="translate(246,80)"/>
<path d="M0 0 C3.73110506 1.99203067 6.68511762 4.92386461 8 9 C8 10.32 8 11.64 8 13 C1.73 13 -4.54 13 -11 13 C-10.34 14.32 -9.68 15.64 -9 17 C-5.58333333 18.08333333 -5.58333333 18.08333333 -2 18 C-0.41666667 16.58333333 -0.41666667 16.58333333 1 15 C4.1875 14.8125 4.1875 14.8125 7 15 C6.04872818 18.42457856 5.07456145 19.93431491 2.375 22.3125 C-1.55583578 24.27791789 -4.73651637 25.10686594 -9 24 C-12.86756684 21.6273965 -15.55211638 19.34365086 -17 15 C-17.36945059 10.01241703 -17.18227193 6.95040654 -14 3 C-9.8327415 -0.55442637 -5.25664977 -0.99950383 0 0 Z " fill="#080808" transform="translate(129,80)"/>
<path d="M0 0 C2.66666667 0 5.33333333 0 8 0 C9.3921875 -0.12375 9.3921875 -0.12375 10.8125 -0.25 C14.7601678 0.059621 16.20009527 1.28009254 19 4 C20.65497356 7.30994713 20.10084335 10.99123 20.0625 14.625 C20.05798828 15.42679688 20.05347656 16.22859375 20.04882812 17.0546875 C20.03703168 19.03649006 20.01909605 21.01825433 20 23 C18.02 23 16.04 23 14 23 C13.67 17.72 13.34 12.44 13 7 C11.35 6.67 9.7 6.34 8 6 C5.94077598 8.05922402 6.58572421 12.21708124 6.4375 15.0625 C6.39431641 15.82111328 6.35113281 16.57972656 6.30664062 17.36132812 C6.20026367 19.24065438 6.09960066 21.12030244 6 23 C4.02 23 2.04 23 0 23 C0 15.41 0 7.82 0 0 Z " fill="#030303" transform="translate(140,80)"/>
<path d="M0 0 C6.27 0 12.54 0 19 0 C17.2868951 4.28276226 15.31473175 7.94599933 12.875 11.8125 C12.50246094 12.40998047 12.12992188 13.00746094 11.74609375 13.62304688 C10.8342952 15.08426251 9.91764024 16.54244585 9 18 C12.3 18 15.6 18 19 18 C19 19.65 19 21.3 19 23 C12.73 23 6.46 23 0 23 C1.64151513 18.89621218 3.38460291 15.46298399 5.625 11.6875 C6.25664062 10.61886719 6.88828125 9.55023438 7.5390625 8.44921875 C8.02117187 7.64097656 8.50328125 6.83273438 9 6 C6.03 6 3.06 6 0 6 C0 4.02 0 2.04 0 0 Z " fill="#0E0E0E" transform="translate(163,80)"/>
<path d="M0 0 C1.98 0 3.96 0 6 0 C6 9.57 6 19.14 6 29 C9.96 29 13.92 29 18 29 C18 30.65 18 32.3 18 34 C12.06 34 6.12 34 0 34 C0 22.78 0 11.56 0 0 Z " fill="#000000" transform="translate(93,69)"/>
<path d="M0 0 C7.59 0 15.18 0 23 0 C23 1.65 23 3.3 23 5 C20.03 5 17.06 5 14 5 C14 14.24 14 23.48 14 33 C12.35 33 10.7 33 9 33 C9 23.76 9 14.52 9 5 C6.03 5 3.06 5 0 5 C0 3.35 0 1.7 0 0 Z " fill="#000000" transform="translate(194,70)"/>
<path d="M0 0 C1.65 0 3.3 0 5 0 C5.63309191 1.18320576 6.25596718 2.37187848 6.875 3.5625 C7.39707031 4.55443359 7.39707031 4.55443359 7.9296875 5.56640625 C9.26101005 8.59346445 10.0915283 11.82034903 11 15 C12.98 10.05 14.96 5.1 17 0 C18.98 0 20.96 0 23 0 C21.94311296 4.57103646 20.20597439 8.82664578 18.5 13.1875 C18.01853516 14.43563477 18.01853516 14.43563477 17.52734375 15.70898438 C17.21925781 16.49982422 16.91117187 17.29066406 16.59375 18.10546875 C16.31208984 18.82887451 16.03042969 19.55228027 15.74023438 20.29760742 C15 22 15 22 14 23 C12.00041636 23.04080783 9.99954746 23.04254356 8 23 C6.6582322 19.73256344 5.32805641 16.46053092 4 13.1875 C3.6184375 12.25873047 3.236875 11.32996094 2.84375 10.37304688 C2.4828125 9.48037109 2.121875 8.58769531 1.75 7.66796875 C1.41484375 6.84578857 1.0796875 6.0236084 0.734375 5.17651367 C0 3 0 3 0 0 Z " fill="#0D0D0D" transform="translate(254,80)"/>
<path d="M0 0 C0.495 0.99 0.495 0.99 1 2 C0.36578125 2.41507813 -0.2684375 2.83015625 -0.921875 3.2578125 C-7.71924404 7.74557825 -14.40308472 12.37323413 -21.0625 17.0625 C-40.93759396 31.0220352 -40.93759396 31.0220352 -46 32 C-43.31048254 28.43468125 -40.5613038 25.64247488 -37.0625 22.875 C-33.94390227 20.40645298 -30.90941844 17.95503134 -28.0234375 15.21875 C-19.60181381 7.37481684 -10.87862712 3.57737121 0 0 Z " fill="#1792D5" transform="translate(76,54)"/>
<path d="M0 0 C5 0 5 0 7 1 C9.3400417 0.71758117 11.67504723 0.38749213 14 0 C14 1.98 14 3.96 14 6 C11.69 6.66 9.38 7.32 7 8 C6.67 12.95 6.34 17.9 6 23 C4.02 23 2.04 23 0 23 C0 15.41 0 7.82 0 0 Z " fill="#0B0B0B" transform="translate(214,80)"/>
<path d="M0 0 C0.66 0.33 1.32 0.66 2 1 C2 1.66 2 2.32 2 3 C1.45400146 3.28697754 0.90800293 3.57395508 0.34545898 3.86962891 C-5.41837316 6.9746035 -10.67895911 10.48520627 -15.9375 14.375 C-16.72382812 14.94645752 -17.51015625 15.51791504 -18.3203125 16.10668945 C-21.58708185 18.48083433 -24.83272267 20.87147418 -28.03515625 23.33203125 C-33.51192457 27.45479663 -38.15589484 29.28646563 -45 30 C-44.43616813 26.73717681 -43.64563272 25.32220234 -41.05859375 23.2734375 C-40.47529297 22.7990625 -39.89199219 22.3246875 -39.29101562 21.8359375 C-38.67935547 21.35382813 -38.06769531 20.87171875 -37.4375 20.375 C-35.24014614 18.62632049 -33.11420402 16.85250143 -31 15 C-31 14.34 -31 13.68 -31 13 C-30.01 13.33 -29.02 13.66 -28 14 C-29.55466197 18.08332902 -32.25087844 20.08208993 -35.625 22.75 C-36.62789062 23.54921875 -37.63078125 24.3484375 -38.6640625 25.171875 C-39.43492188 25.77515625 -40.20578125 26.3784375 -41 27 C-34.60980247 24.11678723 -29.02526336 20.74084542 -23.42578125 16.53515625 C-18.80322431 13.0758343 -14.04728553 9.8028847 -9.3125 6.5 C-8.40193848 5.86392822 -7.49137695 5.22785645 -6.55322266 4.57250977 C-4.36944189 3.04743843 -2.18503985 1.52326658 0 0 Z " fill="#DDEFF8" transform="translate(72,58)"/>
<path d="M0 0 C2.875 -0.125 2.875 -0.125 6 0 C8 2 8 2 8 5 C6.25181409 5.22304441 4.50129677 5.4278645 2.75 5.625 C1.77546875 5.74101563 0.8009375 5.85703125 -0.203125 5.9765625 C-3.13429393 6.00112537 -4.54528964 5.5312717 -7 4 C-5.02 4 -3.04 4 -1 4 C-0.67 2.68 -0.34 1.36 0 0 Z " fill="#F0F0F0" transform="translate(238,85)"/>
<path d="M0 0 C0.99 0.33 1.98 0.66 3 1 C1.46136661 5.35271289 -1.9164358 7.50534461 -5.5 10.125 C-9.92169082 13.3572067 -9.92169082 13.3572067 -14 17 C-13.43616813 13.73717681 -12.64563272 12.32220234 -10.05859375 10.2734375 C-9.47529297 9.7990625 -8.89199219 9.3246875 -8.29101562 8.8359375 C-7.67935547 8.35382813 -7.06769531 7.87171875 -6.4375 7.375 C-4.24014614 5.62632049 -2.11420402 3.85250143 0 2 C0 1.34 0 0.68 0 0 Z " fill="#CFE8F6" transform="translate(41,71)"/>
<path d="M0 0 C5.625 -0.25 5.625 -0.25 9 2 C9 2.66 9 3.32 9 4 C5.37 4 1.74 4 -2 4 C-1.34 2.68 -0.68 1.36 0 0 Z " fill="#D4D4D4" transform="translate(121,85)"/>
<path d="M0 0 C2.97 0 5.94 0 9 0 C8.34 1.32 7.68 2.64 7 4 C5.02 4 3.04 4 1 4 C0.67 2.68 0.34 1.36 0 0 Z " fill="#F4F4F4" transform="translate(237,95)"/>
<path d="M0 0 C2.64 0 5.28 0 8 0 C8 1.32 8 2.64 8 4 C5.36 4 2.72 4 0 4 C0 2.68 0 1.36 0 0 Z " fill="#121212" transform="translate(187,90)"/>
<path d="M0 0 C0.66 0.33 1.32 0.66 2 1 C2 1.66 2 2.32 2 3 C0.5839401 3.79275148 -0.83287553 4.58415312 -2.25 5.375 C-3.03890625 5.81585938 -3.8278125 6.25671875 -4.640625 6.7109375 C-6.73914197 7.85747823 -8.8536077 8.94649552 -11 10 C-9.73459948 6.20379845 -8.21781569 5.51321812 -4.9375 3.3125 C-4.01839844 2.68988281 -3.09929687 2.06726562 -2.15234375 1.42578125 C-1.44207031 0.95527344 -0.73179688 0.48476563 0 0 Z " fill="#E4F2FA" transform="translate(72,58)"/>
</svg>
