<?xml version="1.0" encoding="UTF-8"?>
<svg version="1.1" xmlns="http://www.w3.org/2000/svg" width="2006" height="828">
<path d="M0 0 C5.79817862 5.85249754 11.21769382 11.85609284 16.1875 18.4375 C16.67428223 19.07494141 17.16106445 19.71238281 17.66259766 20.36914062 C25.89788096 31.20938592 32.9833278 42.32347611 39.1875 54.4375 C39.57389648 55.1804834 39.96029297 55.9234668 40.35839844 56.68896484 C56.1875 87.39848334 56.1875 87.39848334 56.1875 100.4375 C57.27240723 99.96030518 58.35731445 99.48311035 59.47509766 98.99145508 C78.2576173 90.73139266 97.04240943 82.4779148 115.87573242 74.33422852 C125.96671179 69.9700307 136.04734438 65.58237233 146.125 61.1875 C146.94550842 60.82969452 147.76601685 60.47188904 148.61138916 60.10324097 C152.79683623 58.27800264 156.98218336 56.45253529 161.16748047 54.62695312 C166.10223176 52.47455524 171.03738822 50.32308772 175.97265625 48.171875 C177.17724739 47.64673813 177.17724739 47.64673813 178.40617371 47.11099243 C182.44246694 45.35147797 186.47909307 43.59273436 190.51635742 41.83544922 C198.02042855 38.5682412 205.52131096 35.29430288 213.01098633 31.99420166 C216.48417734 30.4643821 219.95918734 28.93871887 223.43432617 27.41333008 C225.06364894 26.69679674 226.6921146 25.97831022 228.31958008 25.25756836 C236.87172958 21.47074185 245.45796823 17.86625776 254.23046875 14.6171875 C254.98612122 14.3366452 255.74177368 14.05610291 256.52032471 13.76705933 C311.30030297 -6.14834335 407.26983398 -9.29990654 460.90258789 14.82739258 C469.54674016 18.99280749 477.69278781 24.76134345 482.1875 33.4375 C484.01193814 39.32595602 483.17629415 44.35783896 480.671875 49.8984375 C477.85729225 54.71285536 474.14074969 58.54054659 470.1875 62.4375 C469.05828125 63.56478516 469.05828125 63.56478516 467.90625 64.71484375 C448.84150918 82.79457296 425.03111946 90.46146058 400.52764893 98.4420166 C395.54878161 100.06570265 390.57546044 101.70637413 385.60147858 103.34495163 C384.31423139 103.76887662 383.02687121 104.19245866 381.73940277 104.61571121 C370.32267428 108.37002339 358.9439506 112.23090203 347.57421875 116.125 C333.02783101 121.10695188 318.47083423 126.05554621 303.8984375 130.9609375 C302.95991755 131.27689503 302.02139759 131.59285255 301.05443764 131.91838455 C296.22392891 133.54438419 291.39317308 135.16964804 286.56225586 136.79443359 C277.17708969 139.95096552 267.79290413 143.11041094 258.40871429 146.26984406 C256.30069644 146.97956299 254.19266932 147.68925443 252.08463287 148.39891815 C234.66228161 154.26424558 217.24491683 160.14417524 199.83139038 166.03564453 C189.14082676 169.65243981 178.44901373 173.26554247 167.75731182 176.8789711 C163.27669555 178.3932893 158.79616656 179.90786526 154.31573486 181.42272949 C142.38848198 185.4552826 130.46043463 189.48546822 118.53082466 193.51104355 C113.12774688 195.33435226 107.72503725 197.15873406 102.32324219 198.98583984 C97.25088996 200.7014745 92.17753752 202.41411801 87.10342216 204.12453079 C85.22409997 204.75860093 83.34514042 205.39374706 81.4665699 206.03004074 C78.87525438 206.90755239 76.28264729 207.78114061 73.68969727 208.65380859 C72.94150475 208.90819702 72.19331223 209.16258545 71.4224472 209.42468262 C66.72076109 211.00125225 62.01212526 212.28855836 57.1875 213.4375 C57.08050781 214.56285156 56.97351563 215.68820312 56.86328125 216.84765625 C55.21766799 229.81076863 49.46239981 242.34164565 43.7734375 253.96484375 C43.25391006 255.03648773 42.73438263 256.10813171 42.19911194 257.21224976 C36.11671745 269.71638109 29.87307514 282.14059479 23.625 294.5625 C21.32948764 299.12633208 19.0369823 303.69165797 16.74609375 308.2578125 C16.2499205 309.24186066 15.75374725 310.22590881 15.24253845 311.23977661 C11.73161841 318.23846816 8.34230375 325.2893515 4.97680664 332.35888672 C-0.07007904 342.94978855 -5.26381669 353.46113253 -10.52871704 363.94509888 C-12.05528124 366.98508662 -13.57907797 370.02644906 -15.10229492 373.06811523 C-18.88106479 380.61251199 -22.66427331 388.15468055 -26.4473877 395.69689941 C-29.66431915 402.11078736 -32.87947171 408.52556143 -36.09243774 414.94143677 C-37.56994 417.89011572 -39.0499049 420.83754875 -40.5300293 423.78491211 C-45.72971602 434.15650571 -50.81429867 444.57493111 -55.79913044 455.05147743 C-59.81262056 463.4736249 -63.94901861 471.82977236 -68.13884544 480.16535568 C-69.40837808 482.69120538 -70.67508911 485.21845495 -71.9412384 487.7460022 C-74.62517248 493.10266642 -77.31232358 498.45771271 -80 503.8125 C-83.13359958 510.05582465 -86.26575603 516.29986556 -89.39452553 522.54561234 C-90.62454249 524.99930874 -91.857014 527.45176051 -93.08964539 529.90414429 C-93.86259791 531.44544498 -94.63505357 532.98699496 -95.40698242 534.52880859 C-95.77791614 535.26963369 -96.14884985 536.01045879 -96.53102398 536.77373314 C-99.48813821 542.71337211 -102.31780178 548.70936619 -105.0492506 554.75620079 C-112.24267733 570.39527214 -124.66398754 582.36908784 -140.8125 588.4375 C-148.3208518 590.98418812 -155.27620733 591.95921957 -163.1875 591.875 C-164.19264648 591.86742676 -165.19779297 591.85985352 -166.23339844 591.85205078 C-174.07306409 591.67865165 -180.59922859 590.68296344 -187.8125 587.4375 C-189.19888672 586.83615234 -189.19888672 586.83615234 -190.61328125 586.22265625 C-210.10568836 576.71080271 -218.94388531 558.79451211 -228.0625 540.25 C-229.00873524 538.34055157 -229.95551589 536.43137334 -230.90283203 534.52246094 C-235.99043004 524.25265334 -241.01779304 513.9560211 -245.91308594 503.59301758 C-249.90655225 495.16017418 -254.09957712 486.82963009 -258.28964233 478.49346924 C-262.90638156 469.30410763 -267.41499932 460.07020854 -271.8203125 450.77734375 C-275.0642192 443.95262609 -278.4160451 437.18746487 -281.8125 430.4375 C-286.73084788 420.65712727 -291.51581979 410.82074351 -296.19921875 400.92578125 C-297.89603404 397.34235454 -299.62707233 393.77955866 -301.39453125 390.23046875 C-309.36555163 374.11967073 -314.47002348 357.76284827 -308.7109375 339.8515625 C-308.41445313 339.05492187 -308.11796875 338.25828125 -307.8125 337.4375 C-307.55726563 336.74398438 -307.30203125 336.05046875 -307.0390625 335.3359375 C-304.30302245 329.03551499 -299.57510659 324.28165808 -294.8125 319.4375 C-293.96171875 318.56738281 -293.96171875 318.56738281 -293.09375 317.6796875 C-282.47007771 307.73301393 -266.71721522 304.10603537 -253.2734375 299.6328125 C-251.09796556 298.90220377 -248.92272713 298.17089943 -246.74771118 297.43893433 C-242.21591511 295.91581906 -237.68225064 294.39845745 -233.14697266 292.88574219 C-227.32449088 290.94358391 -221.50558271 288.99097642 -215.68785667 287.0346241 C-211.2090804 285.52901942 -206.72916957 284.02681741 -202.24882889 282.52587509 C-200.10114747 281.80636421 -197.95366301 281.08626517 -195.80637741 280.36557388 C-192.82037207 279.36440304 -189.83303109 278.36733343 -186.84521484 277.37158203 C-185.95488556 277.07243393 -185.06455627 276.77328583 -184.14724731 276.46507263 C-183.33725281 276.19607651 -182.5272583 275.92708038 -181.69271851 275.64993286 C-180.98746222 275.41437243 -180.28220592 275.17881199 -179.55557823 274.93611336 C-177.8125 274.4375 -177.8125 274.4375 -175.8125 274.4375 C-177.04588798 278.13766395 -178.45070444 278.98453034 -181.5 281.375 C-186.01729171 284.97828716 -190.44122363 288.65857324 -194.8125 292.4375 C-198.93656018 295.9927243 -203.08460709 299.50544576 -207.3125 302.9375 C-212.71326172 307.32462902 -217.987177 311.84973412 -223.26171875 316.38671875 C-230.52281003 322.63177321 -237.81803429 328.8338115 -245.25 334.875 C-249.4964257 338.33024304 -253.66542359 341.86452204 -257.8125 345.4375 C-261.98187631 349.02906587 -266.1725176 352.58414259 -270.4375 356.0625 C-271.73880859 357.12404297 -271.73880859 357.12404297 -273.06640625 358.20703125 C-274.51463119 359.38332775 -275.96346922 360.55889082 -277.41748047 361.72802734 C-279.07517677 363.06241237 -280.72539192 364.40563631 -282.375 365.75 C-283.36628906 366.55050781 -284.35757813 367.35101562 -285.37890625 368.17578125 C-288.27659394 370.86881684 -289.51524458 372.71654759 -290.18359375 376.5859375 C-290.30866757 380.77958921 -290.18822369 383.58531745 -287.5 386.9375 C-283.87522168 390.30938681 -281.15494603 390.72731458 -276.28369141 390.65625 C-271.0690398 390.19464875 -266.04805923 388.7722483 -261 387.4375 C-259.20900879 386.96546143 -259.20900879 386.96546143 -257.38183594 386.48388672 C-234.88812366 380.34841403 -216.84830966 369.54274152 -198.08544922 356.06298828 C-194.14021818 353.24157601 -190.16315507 350.46579606 -186.1875 347.6875 C-185.35903564 347.10782471 -184.53057129 346.52814941 -183.67700195 345.9309082 C-176.25667424 340.74127891 -168.82202104 335.57230015 -161.38696289 330.40380859 C-151.84683312 323.77019295 -142.32801093 317.10636028 -132.8125 310.4375 C-121.3493725 302.40367016 -109.87380673 294.38829591 -98.37963867 286.39892578 C-92.18242974 282.09003858 -85.9937148 277.76929533 -79.8125 273.4375 C-71.68102459 267.73896203 -63.53226075 262.065616 -55.37890625 256.3984375 C-49.18195898 252.08968759 -42.99350208 247.76908787 -36.8125 243.4375 C-29.509247 238.32000472 -22.19572556 233.21747075 -14.875 228.125 C-13.96427734 227.49142578 -13.05355469 226.85785156 -12.11523438 226.20507812 C-10.34781162 224.97617696 -8.57673629 223.75250791 -6.80158997 222.53479004 C-4.85294369 221.1675256 -2.93063426 219.76168828 -1.04118347 218.3137207 C7.69474782 211.80135324 16.48400848 208.37075669 26.796875 205.05078125 C28.52851757 204.47576949 30.25951883 203.89882345 31.9899292 203.32011414 C35.6922741 202.086249 39.39856518 200.86544307 43.10864258 199.6550293 C49.05532998 197.71475221 54.9921105 195.74530589 60.92773438 193.77148438 C68.18178221 191.36118966 75.43793497 188.95745366 82.69702148 186.56237602 C95.39188488 182.37302947 108.06882554 178.13257108 120.734375 173.85546875 C122.09819305 173.3949496 122.09819305 173.3949496 123.48956299 172.92512703 C128.06159115 171.38097055 132.63328869 169.83583804 137.20483398 168.29025269 C145.50430044 165.48481959 153.8066836 162.68803809 162.10882568 159.89053535 C165.81496759 158.64164016 169.52098712 157.39238203 173.227005 156.14311886 C184.49173653 152.34589069 195.75674959 148.54949799 207.02178001 144.75315666 C236.8506963 134.70068413 266.67950236 124.64788531 296.50390625 114.58203125 C297.32205559 114.30592577 298.14020493 114.02982029 298.98314667 113.74534798 C307.79984682 110.7698585 316.61584834 107.79232581 325.43017578 104.80981445 C328.53021882 103.76106895 331.63032302 102.71250441 334.73046875 101.6640625 C335.87041668 101.27849843 335.87041668 101.27849843 337.03339386 100.88514519 C347.22552452 97.43890265 357.42593371 94.01839356 367.63401794 90.6197052 C373.12267362 88.79217265 378.60875675 86.95697358 384.09425068 85.11997509 C387.76275231 83.89210263 391.43254095 82.66847775 395.10610962 81.45584106 C434.20888112 69.19975369 434.20888112 69.19975369 464.1875 42.4375 C464.01623726 39.4751175 463.69586695 37.96226589 461.61328125 35.8125 C455.62698426 31.91753412 449.31829661 29.02278374 442.42529297 27.08642578 C440.1875 26.4375 440.1875 26.4375 437.37548828 25.36279297 C425.19716366 21.51329134 415.7686311 26.3799344 404.4375 30.9375 C402.30497588 31.76339584 400.1708152 32.58507661 398.03515625 33.40283203 C394.64763919 34.70104384 391.26163049 36.00241879 387.88049316 37.31716919 C379.37201275 40.62478062 370.82120274 43.80037474 362.234375 46.8984375 C361.61170305 47.12313847 360.98903111 47.34783943 360.34749031 47.57934952 C355.96213832 49.16071925 351.57477261 50.73646689 347.1875 52.3125 C342.30513377 54.0705495 337.423757 55.83132469 332.54296875 57.59375 C331.38498276 58.01163788 330.22699677 58.42952576 329.03392029 58.8600769 C322.14689967 61.35067532 315.27897323 63.8866568 308.42578125 66.46875 C306.86924084 67.05121188 305.31260483 67.63341839 303.75585938 68.21533203 C301.02514856 69.2360919 298.30271472 70.27545164 295.58398438 71.32763672 C284.88998168 75.32532567 284.88998168 75.32532567 279.1875 73.4375 C275.98774134 70.77103445 274.40322082 69.32669138 273.9296875 65.1796875 C274.13893789 61.45010695 274.30947112 59.33406964 277.00268555 56.58398438 C281.6773139 53.43340312 286.72954085 51.80652028 292.02734375 49.9453125 C293.20636765 49.52218277 294.38539154 49.09905304 295.60014343 48.6631012 C298.12867041 47.75693592 300.65812362 46.85427844 303.19000244 45.95761108 C307.1351161 44.56037343 311.07558041 43.15036827 315.01513672 41.73754883 C316.33440166 41.26457486 317.65367656 40.7916287 318.97296143 40.31871033 C319.95133343 39.96799626 319.95133343 39.96799626 320.94947052 39.61019707 C322.92662434 38.90204178 324.90424645 38.19520993 326.88201904 37.48878479 C338.21845001 33.43836672 349.52244073 29.30281309 360.8125 25.125 C362.41395829 24.53330409 364.0154386 23.94166778 365.61694336 23.35009766 C369.14115718 22.04777151 372.66461784 20.74342485 376.1875 19.4375 C353.44420524 19.13244136 330.87480424 19.82179564 308.1875 21.4375 C307.19991699 21.50694824 306.21233398 21.57639648 305.19482422 21.64794922 C296.55560378 22.29999716 288.19902582 23.70972253 279.75 25.625 C278.97599854 25.79684814 278.20199707 25.96869629 277.40454102 26.14575195 C261.70837764 29.96882846 246.78016689 36.74754449 232.09533691 43.34112549 C228.33089764 45.03128017 224.56039168 46.70770846 220.79025269 48.38510132 C218.89552887 49.22821061 217.00109607 50.07197424 215.10696411 50.91641235 C207.4050718 54.34863928 199.67974201 57.72230933 191.9375 61.0625 C189.5559442 62.09104077 187.17443449 63.11968823 184.79296875 64.1484375 C184.19280945 64.40760956 183.59265015 64.66678162 182.9743042 64.93380737 C174.72426302 68.49857145 166.48779962 72.09456353 158.25 75.6875 C156.58951879 76.41162238 154.92903702 77.13574347 153.26855469 77.85986328 C149.9148225 79.32246781 146.56115629 80.78522354 143.20751953 82.24804688 C135.84442425 85.4596192 128.48042631 88.66912048 121.1164856 91.87875366 C118.68104883 92.94031193 116.24566733 94.00199689 113.81030273 95.0637207 C106.51626814 98.2435646 99.22200045 101.42286778 91.9264679 104.59927368 C74.3137743 112.26774951 56.71091213 119.9577832 39.125 127.6875 C26.26141922 133.3414563 13.38691405 138.96795872 0.48974609 144.54492188 C-9.59808837 148.90766919 -19.67551812 153.29401174 -29.75 157.6875 C-30.57050842 158.04530548 -31.39101685 158.40311096 -32.23638916 158.77175903 C-36.42183623 160.59699736 -40.60718336 162.42246471 -44.79248047 164.24804688 C-52.15557575 167.4596192 -59.51957369 170.66912048 -66.8835144 173.87875366 C-69.31895117 174.94031193 -71.75433267 176.00199689 -74.18969727 177.0637207 C-81.48373186 180.2435646 -88.77799955 183.42286778 -96.0735321 186.59927368 C-113.6862257 194.26774951 -131.28908787 201.9577832 -148.875 209.6875 C-161.7370808 215.34079701 -174.6098019 220.96731498 -187.50585938 226.54272461 C-195.97951625 230.20683891 -204.44493464 233.8894341 -212.90600586 237.58251953 C-216.214242 239.02630745 -219.52368989 240.46726138 -222.83422852 241.90576172 C-230.33083332 245.16466709 -237.82169651 248.43377308 -245.28555298 251.76713562 C-279.35786964 266.97594947 -279.35786964 266.97594947 -296.8125 270.4375 C-298.06675781 270.6953125 -299.32101562 270.953125 -300.61328125 271.21875 C-320.37120195 274.61988697 -340.49825633 273.21173879 -357.8125 262.4375 C-378.98433868 247.06616507 -383.65358942 218.73710269 -387.8125 194.4375 C-388.00948486 193.33172607 -388.00948486 193.33172607 -388.21044922 192.20361328 C-397.87492576 135.47733796 -381.48438338 74.44015574 -348.9375 27.75 C-333.99163691 6.82341931 -315.82274548 -11.72466744 -294.8125 -26.5625 C-294.22146484 -26.99288574 -293.63042969 -27.42327148 -293.02148438 -27.86669922 C-214.47726135 -84.99583539 -100.79639079 -80.86720286 0 0 Z M-254.47265625 125.27734375 C-277.19764826 151.44445202 -285.36295968 183.33277061 -283.8125 217.4375 C-282.90833436 227.57734089 -280.12444563 236.85055055 -276.8125 246.4375 C-263.38497213 240.9547652 -250.07036118 235.26346878 -236.85092163 229.29592896 C-224.60710307 223.77064258 -212.29163874 218.41824886 -199.95869446 213.0952301 C-191.58829959 209.48038463 -183.23214267 205.83284968 -174.875 202.1875 C-173.21566206 201.46385686 -171.55631959 200.7402241 -169.89697266 200.01660156 C-166.54209875 198.55351422 -163.18729164 197.09027385 -159.83251953 195.62695312 C-154.89776825 193.47455525 -149.96262457 191.32305837 -145.02734375 189.171875 C-143.82288857 188.64687408 -143.82288857 188.64687408 -142.59410095 188.11126709 C-138.55585746 186.35110265 -134.51756719 184.59104556 -130.47924805 182.83105469 C-122.99835367 179.57058358 -115.51781239 176.30931089 -108.03862 173.04493713 C-72.81073906 157.66947807 -72.81073906 157.66947807 -55.8125 150.4375 C-62.16251328 129.06121769 -84.09279909 110.01076271 -102.9765625 99.46484375 C-154.66947464 71.72043272 -214.67094913 82.7871219 -254.47265625 125.27734375 Z " fill="#0987D0" transform="translate(494.8125,152.5625)"/>
<path d="M0 0 C5.79817862 5.85249754 11.21769382 11.85609284 16.1875 18.4375 C16.67428223 19.07494141 17.16106445 19.71238281 17.66259766 20.36914062 C25.89788096 31.20938592 32.9833278 42.32347611 39.1875 54.4375 C39.57389648 55.1804834 39.96029297 55.9234668 40.35839844 56.68896484 C45.30934176 66.29412688 49.32570023 76.08342309 52.8125 86.3125 C53.16779785 87.34133301 53.5230957 88.37016602 53.88916016 89.43017578 C54.20675293 90.39938965 54.5243457 91.36860352 54.8515625 92.3671875 C55.13467285 93.22554199 55.4177832 94.08389648 55.70947266 94.96826172 C56.30986561 98.06957649 56.51204113 99.5242659 55.1875 102.4375 C52.55796803 104.25276617 49.68077715 105.40437723 46.73828125 106.625 C45.43118698 107.19392975 45.43118698 107.19392975 44.09768677 107.77435303 C41.23922062 109.01350071 38.37001389 110.22536887 35.5 111.4375 C33.51688889 112.29150703 31.53455164 113.14731321 29.55297852 114.00488281 C24.65238957 116.12146468 19.74345596 118.21783574 14.83190918 120.30883789 C10.54000321 122.14066925 6.25993386 123.99941712 1.98068237 125.86056519 C-0.97030118 127.14396431 -3.92296103 128.42303849 -6.87939453 129.69384766 C-12.82807285 132.2526935 -18.75374403 134.85070082 -24.6519928 137.5234375 C-27.79092513 138.94579798 -30.93385867 140.359217 -34.07662964 141.77307129 C-35.59508599 142.45978704 -37.11135854 143.15135455 -38.62527466 143.84802246 C-40.7254454 144.81432544 -42.83241259 145.76408083 -44.94140625 146.7109375 C-45.56394287 147.00287994 -46.18647949 147.29482239 -46.82788086 147.59561157 C-50.52373481 149.23240691 -52.96675585 149.88213143 -56.8125 148.4375 C-58.55078125 146.06640625 -58.55078125 146.06640625 -60.125 143 C-63.47266167 136.8903367 -67.28926521 131.71744137 -71.8125 126.4375 C-72.81023437 125.22126953 -72.81023437 125.22126953 -73.828125 123.98046875 C-92.28942408 102.27134853 -119.94065954 89.50209895 -147.8125 85.4375 C-181.9840496 83.70663103 -213.02679223 90.05441546 -239.8125 112.4375 C-240.80765625 113.26894531 -241.8028125 114.10039062 -242.828125 114.95703125 C-265.47267664 134.49457349 -279.56283488 162.78817446 -282.8125 192.4375 C-283.62911737 209.62978244 -282.93452334 226.15523643 -277.36328125 242.5546875 C-276.8125 244.4375 -276.8125 244.4375 -276.8125 247.4375 C-277.59036865 247.77370361 -278.3682373 248.10990723 -279.16967773 248.45629883 C-281.51750676 249.47142256 -283.86506498 250.48715901 -286.21240234 251.50341797 C-288.9211108 252.67594048 -291.63124582 253.8450849 -294.34228516 255.01220703 C-300.95925245 257.86600065 -307.55110369 260.75580219 -314.08984375 263.78515625 C-315.20625244 264.29651123 -316.32266113 264.80786621 -317.47290039 265.3347168 C-319.56919261 266.29840304 -321.65867842 267.27707795 -323.73999023 268.27270508 C-331.21331687 271.68373809 -335.13309719 271.75270007 -343.05078125 269.52734375 C-357.75934322 264.01396919 -368.63092891 255.29654507 -375.34375 240.99609375 C-381.51736927 226.03820237 -384.98646917 210.32651249 -387.8125 194.4375 C-387.94672363 193.69306641 -388.08094727 192.94863281 -388.21923828 192.18164062 C-397.86735322 135.45995227 -381.48069633 74.43486649 -348.9375 27.75 C-333.99163691 6.82341931 -315.82274548 -11.72466744 -294.8125 -26.5625 C-294.22146484 -26.99288574 -293.63042969 -27.42327148 -293.02148438 -27.86669922 C-214.47726135 -84.99583539 -100.79639079 -80.86720286 0 0 Z " fill="#006BBB" transform="translate(494.8125,152.5625)"/>
<path d="M0 0 C3.6426985 2.74974128 6.85231452 5.70127395 10 9 C10.83724609 9.80824219 10.83724609 9.80824219 11.69140625 10.6328125 C29.01534337 28.63523279 26.44410978 55.34369898 26.51123047 78.27416992 C26.52696385 81.99416043 26.55994206 85.71373059 26.59375 89.43359375 C26.59072876 90.56188095 26.58770752 91.69016815 26.58459473 92.85264587 C26.59793943 102.33294192 26.59793943 102.33294192 30 111 C35.96896279 113.67082039 35.96896279 113.67082039 47 114 C47 124.23 47 134.46 47 145 C34.3346449 148.79960653 24.51775392 149.1139507 12.26171875 143.81640625 C5.64800021 140.18554677 -2.34379981 134.11601107 -4.74609375 126.6953125 C-4.82988281 126.13585937 -4.91367188 125.57640625 -5 125 C-5.46148438 125.42410156 -5.92296875 125.84820313 -6.3984375 126.28515625 C-24.24409823 142.33214366 -43.94784689 149.06768719 -67.95166016 148.13623047 C-82.15109538 147.19185802 -96.65340983 143.20260184 -107 133 C-109.3961334 130.16966793 -111.25881711 127.2706718 -113 124 C-113.41378906 123.22398437 -113.82757812 122.44796875 -114.25390625 121.6484375 C-118.84294493 111.31910305 -118.61162988 98.02873673 -115.375 87.3125 C-111.05452404 76.46599042 -102.62794249 67.96862587 -92.00282288 63.14460754 C-81.35365464 59.08538767 -70.24395401 58.57055229 -58.97265625 58.70703125 C-57.60404432 58.71264897 -56.23542623 58.71690872 -54.86680603 58.71989441 C-51.32075378 58.73117255 -47.77508938 58.76048511 -44.22918701 58.79400635 C-40.58839154 58.82508218 -36.9475314 58.83847858 -33.30664062 58.85351562 C-26.20427152 58.88537758 -19.10216151 58.93635806 -12 59 C-12.11109908 56.11895598 -12.23536135 53.23948375 -12.3671875 50.359375 C-12.39707764 49.54903809 -12.42696777 48.73870117 -12.45776367 47.90380859 C-12.85672698 39.63056953 -15.12591141 33.44297865 -21.1875 27.625 C-30.21812386 20.66471567 -41.38905639 19.03865063 -52.44921875 20.2734375 C-61.19451007 21.72869791 -69.29471725 24.92922298 -74.8203125 32.109375 C-78.0002197 37.20565011 -79.01391723 42.08350339 -80 48 C-92.21 48 -104.42 48 -117 48 C-117 32.03477713 -113.04367515 19.10215027 -102 7.3125 C-75.6186991 -17.64470908 -30.03629269 -19.22793758 0 0 Z M-75 92 C-77.76305146 95.476097 -78.73458568 98.57642801 -79 103 C-78.22772251 109.06789453 -75.66735553 111.88293228 -71.0625 115.55859375 C-63.77659767 120.65044595 -53.54443768 120.54760411 -45 119.4375 C-34.75486206 117.4368112 -24.36713575 112.2923232 -18.31640625 103.57421875 C-14.43811436 97.29640813 -11.86299392 92.48130398 -12 85 C-18.38627691 84.94901568 -24.77250072 84.91414768 -31.15893555 84.89013672 C-33.32855185 84.88011987 -35.4981548 84.86650258 -37.66772461 84.84912109 C-40.79804801 84.82468229 -43.92819188 84.81347343 -47.05859375 84.8046875 C-48.49820717 84.78920364 -48.49820717 84.78920364 -49.96690369 84.77340698 C-59.34124211 84.7718682 -67.56205544 85.94463808 -75 92 Z " fill="#FFFFFF" transform="translate(1707,502)"/>
<path d="M0 0 C1.05832031 0.36222656 2.11664062 0.72445313 3.20703125 1.09765625 C21.97195323 8.20375636 36.49129182 22.0147685 45 40 C51.60871456 54.84418964 52 64.93425709 52 82 C10.42 82 -31.16 82 -74 82 C-70.72865157 96.1758432 -67.6520774 106.85817722 -56 116 C-44.45503954 123.20236065 -31.74774265 125.26474424 -18.4140625 122.92578125 C-8.97973427 120.36750231 1.07470702 115.48882688 6.86328125 107.39453125 C7.34152344 106.54246094 7.81976562 105.69039062 8.3125 104.8125 C8.80363281 103.95269531 9.29476562 103.09289062 9.80078125 102.20703125 C10.55627053 100.81663568 11.29233286 99.41533428 12 98 C24.54 98 37.08 98 50 98 C44.63907223 117.65673517 34.49268768 133.16513527 17 144 C5.57800432 150.4708712 -7.78684214 155.44849428 -21 156 C-22.12277344 156.0515625 -23.24554687 156.103125 -24.40234375 156.15625 C-50.35453039 156.76869098 -73.19284586 149.02682199 -92.1875 130.9140625 C-106.94310559 115.40914881 -113.67874947 93.63159157 -113.24609375 72.5078125 C-111.62497552 49.40044477 -102.89319308 29.93199877 -85.51269531 14.28955078 C-81.63792585 10.9863661 -77.47253399 8.40638413 -73 6 C-72.01644531 5.46761719 -71.03289063 4.93523437 -70.01953125 4.38671875 C-48.81562978 -6.22840211 -22.39151768 -7.93195458 0 0 Z M-57 36 C-58.051875 36.721875 -59.10375 37.44375 -60.1875 38.1875 C-64.86817037 42.86817037 -68.89590684 48.68772053 -71 55 C-43.94 55 -16.88 55 11 55 C7.66136259 44.98408777 0.93427352 37.11190254 -8.2265625 31.6796875 C-24.39241867 23.96806 -42.45851556 25.67766889 -57 36 Z " fill="#FFFFFF" transform="translate(896,494)"/>
<path d="M0 0 C13.48805421 8.7661422 22.46937026 21.17759688 26.31846237 36.86943054 C27.12878756 41.33957465 27.00932531 45.81803414 26.97705078 50.34765625 C26.97734283 51.43147079 26.97763489 52.51528534 26.97793579 53.63194275 C26.97654935 57.1922117 26.96102032 60.75226789 26.9453125 64.3125 C26.94157994 66.78971238 26.93873411 69.26692624 26.93673706 71.74414062 C26.92911979 78.24770216 26.90948762 84.75117363 26.8873291 91.25469971 C26.8668296 97.89765368 26.85772658 104.54061648 26.84765625 111.18359375 C26.82623997 124.205775 26.79107331 137.2278659 26.75 150.25 C14.87 150.25 2.99 150.25 -9.25 150.25 C-9.279729 146.0118042 -9.279729 146.0118042 -9.31005859 141.68798828 C-9.37711668 132.32815906 -9.45475371 122.9684388 -9.53752708 113.60873604 C-9.58736541 107.93677314 -9.63369624 102.26482775 -9.671875 96.59277344 C-9.70888561 91.11377631 -9.75528766 85.63493023 -9.80806351 80.15606308 C-9.82652389 78.07104022 -9.84166231 75.98598509 -9.85334396 73.90091324 C-9.87035016 70.96910551 -9.89941852 68.03763746 -9.93115234 65.10595703 C-9.93331253 64.25358963 -9.93547272 63.40122223 -9.93769836 62.52302551 C-10.07431469 52.57258727 -11.44125624 43.84269293 -18.25 36.25 C-25.35375383 30.11792414 -31.97549979 27.92116624 -41.25 28.375 C-48.94801295 29.20878982 -56.0990284 32.24053313 -61.25 38.25 C-66.43231394 46.61173358 -67.39196631 54.09957889 -67.45532227 63.74365234 C-67.46522186 64.68087128 -67.47512146 65.61809021 -67.48532104 66.58370972 C-67.51679578 69.66776034 -67.54163782 72.75182634 -67.56640625 75.8359375 C-67.5869879 77.97970978 -67.60798468 80.12347811 -67.62937927 82.26724243 C-67.68447489 87.8994425 -67.7339392 93.53167843 -67.78222656 99.16394043 C-67.83253309 104.91531553 -67.88817132 110.66663879 -67.94335938 116.41796875 C-68.05078789 127.69526978 -68.15177374 138.97261505 -68.25 150.25 C-80.46 150.25 -92.67 150.25 -105.25 150.25 C-105.25 99.43 -105.25 48.61 -105.25 -3.75 C-93.04 -3.75 -80.83 -3.75 -68.25 -3.75 C-67.755 2.19 -67.755 2.19 -67.25 8.25 C-66.17685547 7.36248047 -66.17685547 7.36248047 -65.08203125 6.45703125 C-46.16787687 -8.54216233 -21.55703283 -12.06402755 0 0 Z " fill="#FFFFFF" transform="translate(1078.25,496.75)"/>
<path d="M0 0 C51.48 0 102.96 0 156 0 C156 11.55 156 23.1 156 35 C136.53 35 117.06 35 97 35 C97 97.7 97 160.4 97 225 C84.46 225 71.92 225 59 225 C59 162.3 59 99.6 59 35 C39.53 35 20.06 35 0 35 C0 23.45 0 11.9 0 0 Z " fill="#FFFFFF" transform="translate(1339,422)"/>
<path d="M0 0 C12.87 0 25.74 0 39 0 C39 64.35 39 128.7 39 195 C65.4 195 91.8 195 119 195 C119 206.88 119 218.76 119 231 C79.73 231 40.46 231 0 231 C0 154.77 0 78.54 0 0 Z " fill="#FFFFFF" transform="translate(654,416)"/>
<path d="M0 0 C42.24 0 84.48 0 128 0 C126.52592646 3.68518385 125.26141378 6.38161366 123.1640625 9.6328125 C122.31920288 10.95031494 122.31920288 10.95031494 121.45727539 12.29443359 C120.85262451 13.22852051 120.24797363 14.16260742 119.625 15.125 C118.34476754 17.11960906 117.06482425 19.11440375 115.78515625 21.109375 C115.14465332 22.10517578 114.50415039 23.10097656 113.84423828 24.12695312 C111.23122732 28.19763264 108.64354659 32.28400141 106.0625 36.375 C105.34441162 37.51219482 105.34441162 37.51219482 104.61181641 38.67236328 C99.90643027 46.13249969 95.23715291 53.61516331 90.56665039 61.09716797 C86.72874564 67.24272024 82.87495196 73.37774675 79 79.5 C72.54224182 89.70350115 66.14709885 99.9459925 59.75415039 110.19018555 C57.5041214 113.79430297 55.25185896 117.39702566 53 121 C77.42 121 101.84 121 127 121 C127 131.89 127 142.78 127 154 C82.78 154 38.56 154 -7 154 C-5.43497023 150.08742557 -3.91532723 147.02648945 -1.7265625 143.4921875 C-1.07292725 142.43306152 -0.41929199 141.37393555 0.25415039 140.28271484 C0.9609516 139.14671739 1.66790504 138.01081463 2.375 136.875 C3.10497905 135.69627658 3.83471292 134.51740129 4.56420898 133.33837891 C9.64645383 125.13445795 14.78466525 116.96623661 19.953125 108.81640625 C23.42988053 103.32986616 26.87187365 97.82174548 30.3125 92.3125 C30.94220703 91.30445313 31.57191406 90.29640625 32.22070312 89.2578125 C35.41487235 84.14324245 38.60665192 79.02718847 41.796875 73.91015625 C42.42811279 72.89848389 43.05935059 71.88681152 43.7097168 70.84448242 C44.87348839 68.97928886 46.0365228 67.11363492 47.19848633 65.24731445 C53.72768948 54.78522212 60.37818754 44.40570529 67 34 C33.835 33.505 33.835 33.505 0 33 C0 22.11 0 11.22 0 0 Z " fill="#FFFFFF" transform="translate(1131,493)"/>
<path d="M0 0 C13.2 0 26.4 0 40 0 C45.21042068 14.00088269 50.19107126 28.06561244 55.0625 42.1875 C56.55104708 46.49515036 58.04093231 50.80233693 59.53125 55.109375 C59.90323013 56.18481064 60.27521027 57.26024628 60.65846252 58.36827087 C63.15905312 65.59097209 65.68107135 72.8058766 68.21875 80.015625 C68.71199013 81.41818291 68.71199013 81.41818291 69.2151947 82.84907532 C70.76802034 87.26360467 72.32411901 91.67693912 73.88500977 96.08862305 C74.43518767 97.65148452 74.98524394 99.21438881 75.53515625 100.77734375 C75.78740967 101.48638855 76.03966309 102.19543335 76.29956055 102.92596436 C78 107.7729137 78 107.7729137 78 110 C78.66 110 79.32 110 80 110 C80.16852478 109.34592667 80.33704956 108.69185333 80.51068115 108.01795959 C82.40175378 100.86347521 84.67012706 93.90680344 87.140625 86.93359375 C87.73997864 85.22755981 87.73997864 85.22755981 88.35144043 83.48706055 C89.64711216 79.80250578 90.94840546 76.1199662 92.25 72.4375 C92.92129086 70.53273116 93.59198443 68.62775277 94.26260757 66.72274876 C102.10189204 44.45567439 110.03498121 22.22240243 118 0 C131.2 0 144.4 0 158 0 C154.62533179 11.24889403 154.62533179 11.24889403 153.10351562 14.98706055 C152.58065224 16.28131454 152.58065224 16.28131454 152.04722595 17.60171509 C151.48244286 18.9802919 151.48244286 18.9802919 150.90625 20.38671875 C150.49464127 21.40244965 150.08303253 22.41818054 149.65895081 23.46469116 C148.75466052 25.69487518 147.84833102 27.92423317 146.94021606 30.15286255 C145.46977285 33.76168472 144.00429227 37.37249788 142.54077148 40.98413086 C142.28467448 41.61608777 142.02857748 42.24804468 141.76471996 42.8991518 C141.23114396 44.21585836 140.69758741 45.53257281 140.16404915 46.84929466 C139.32474317 48.92006934 138.48485555 50.9906074 137.6448822 53.06111145 C130.21209072 71.38781997 122.84166647 89.73968324 115.46435547 108.08877563 C113.07054674 114.042726 110.67598537 119.99637346 108.28125 125.94995117 C104.52045677 135.29981605 100.76010609 144.64985877 97 154 C85.12 154 73.24 154 61 154 C55.85103748 141.13908929 50.70290637 128.27784653 45.55607128 115.41608429 C43.16375055 109.43784398 40.77112479 103.4597262 38.37768555 97.48193359 C28.68372713 73.26983051 19.00003944 49.05368429 9.38808632 24.80888367 C8.54256781 22.67643605 7.69651292 20.54420102 6.84990501 18.41218567 C5.69024429 15.49098121 4.53285237 12.56888925 3.3762207 9.64648438 C3.03112017 8.77805405 2.68601963 7.90962372 2.3304615 7.01487732 C0 1.11472919 0 1.11472919 0 0 Z " fill="#FFFFFF" transform="translate(1743,493)"/>
<path d="M0 0 C0.21582031 2.32250977 0.21582031 2.32250977 0 5 C-1.42675781 6.53881836 -1.42675781 6.53881836 -3.453125 7.83984375 C-4.207146 8.33798584 -4.96116699 8.83612793 -5.73803711 9.34936523 C-6.56698486 9.87344971 -7.39593262 10.39753418 -8.25 10.9375 C-10.0074072 12.09238651 -11.76388913 13.24868201 -13.51953125 14.40625 C-14.42912598 14.99921875 -15.3387207 15.5921875 -16.27587891 16.203125 C-20.55783054 19.0275706 -24.74617666 21.98094591 -28.9375 24.9375 C-30.61699276 26.11616296 -32.2966812 27.29454713 -33.9765625 28.47265625 C-34.80833008 29.0567627 -35.64009766 29.64086914 -36.49707031 30.24267578 C-40.59995637 33.12334042 -44.7059508 35.99956062 -48.8125 38.875 C-50.03827759 39.73339478 -50.03827759 39.73339478 -51.28881836 40.60913086 C-58.65948019 45.76766287 -66.04560948 50.90384077 -73.43286133 56.03857422 C-79.63007026 60.34746142 -85.8187852 64.66820467 -92 69 C-100.13147541 74.69853797 -108.28023925 80.371884 -116.43359375 86.0390625 C-122.63054085 90.34781229 -128.81902545 94.66837304 -135 99 C-142.15622761 104.01508431 -149.32453729 109.01247701 -156.5 114 C-167.01624313 121.3102319 -177.51188041 128.64949568 -188 136 C-199.4631275 144.03382984 -210.93869327 152.04920409 -222.43286133 160.03857422 C-227.81435705 163.78030026 -233.19123311 167.52840973 -238.55883789 171.29003906 C-240.18461947 172.42885036 -241.81140906 173.566224 -243.43920898 174.70214844 C-247.87664386 177.80030398 -252.29395965 180.92341892 -256.69140625 184.078125 C-272.85406868 195.6084433 -288.77630081 205.58155538 -308 211 C-308.845625 211.25523437 -309.69125 211.51046875 -310.5625 211.7734375 C-314.126199 212.78227876 -316.47360939 213.06022201 -320 212 C-314.13727049 206.62053236 -308.15946016 201.44868253 -301.9765625 196.44140625 C-298.65215635 193.71469517 -295.38401965 190.92919978 -292.125 188.125 C-283.67260908 180.85499605 -275.21424303 173.5952034 -266.5625 166.5625 C-261.69870975 162.60491812 -256.94118769 158.53457554 -252.19165039 154.44165039 C-248.66701081 151.41054711 -245.10960118 148.43014684 -241.5 145.5 C-236.09923828 141.11287098 -230.825323 136.58776588 -225.55078125 132.05078125 C-218.28968997 125.80572679 -210.99446571 119.6036885 -203.5625 113.5625 C-198.69870975 109.60491812 -193.94118769 105.53457554 -189.19165039 101.44165039 C-184.8019965 97.66665609 -180.33885229 93.99271539 -175.84375 90.34375 C-172.52313514 87.60697951 -169.25953218 84.8089705 -166 82 C-161.01474332 77.70385008 -155.96736795 73.50086411 -150.85546875 69.35546875 C-146.88693322 66.08183411 -142.99653323 62.71911561 -139.12109375 59.3359375 C-137.42984155 57.87097961 -135.7164744 56.43527146 -134 55 C-133.45706299 54.51660156 -132.91412598 54.03320312 -132.35473633 53.53515625 C-126.42544363 48.60286735 -119.48784627 46.04845511 -112.38687134 43.28097534 C-109.99138125 42.34727989 -107.60198124 41.39929138 -105.21362305 40.44750977 C-102.61309191 39.41138598 -100.01221217 38.37623423 -97.40962219 37.34529114 C-87.39708439 33.37781473 -77.42912681 29.30218302 -67.46105957 25.22454834 C-64.31972945 23.94045521 -61.17713108 22.65951375 -58.03417969 21.37939453 C-48.51506155 17.4997406 -39.00698854 13.59782986 -29.53125 9.61328125 C-27.9436724 8.94848457 -26.35602816 8.28384699 -24.76831055 7.61938477 C-21.88190911 6.41133816 -19.00160776 5.19013925 -16.12426758 3.96069336 C-14.8499986 3.42638016 -13.57551692 2.89257384 -12.30078125 2.359375 C-10.67910034 1.67053223 -10.67910034 1.67053223 -9.0246582 0.96777344 C-5.84243268 -0.05041544 -3.31900522 -0.18779196 0 0 Z " fill="#0E8DD2" transform="translate(545,314)"/>
<path d="M0 0 C0.99644531 0.00064453 1.99289062 0.00128906 3.01953125 0.00195312 C10.3433422 0.0466711 10.3433422 0.0466711 12.625 1.1875 C12.625 12.4075 12.625 23.6275 12.625 35.1875 C9.94375 35.125625 7.2625 35.06375 4.5 35 C-10.28616155 34.90747754 -23.59607507 37.63676709 -34.75 47.9375 C-44.2702879 58.12108664 -46.4742735 71.10536439 -46.58032227 84.53125 C-46.59022186 85.32245743 -46.60012146 86.11366486 -46.61032104 86.92884827 C-46.64162703 89.51503624 -46.66656971 92.10124251 -46.69140625 94.6875 C-46.71200255 96.49211067 -46.73299968 98.2967168 -46.75437927 100.10131836 C-46.80932378 104.82928779 -46.85885377 109.55729874 -46.90722656 114.28533936 C-46.96652364 119.9698486 -47.03259822 125.65428268 -47.09752655 131.33872986 C-47.19518805 139.9549403 -47.2842818 148.57120106 -47.375 157.1875 C-59.585 157.1875 -71.795 157.1875 -84.375 157.1875 C-84.375 106.3675 -84.375 55.5475 -84.375 3.1875 C-72.165 3.1875 -59.955 3.1875 -47.375 3.1875 C-46.88 12.0975 -46.88 12.0975 -46.375 21.1875 C-44.725 19.2075 -43.075 17.2275 -41.375 15.1875 C-29.06811971 4.58671371 -16.07096733 -0.20221747 0 0 Z " fill="#FFFFFF" transform="translate(1559.375,489.8125)"/>
<path d="M0 0 C17.49 0 34.98 0 53 0 C53 7.92 53 15.84 53 24 C35.51 24 18.02 24 0 24 C0 16.08 0 8.16 0 0 Z " fill="#FFFFFF" transform="translate(1292,557)"/>
<path d="M0 0 C0.66 0.33 1.32 0.66 2 1 C-0.97 3.97 -0.97 3.97 -4 7 C-3.34 7.66 -2.68 8.32 -2 9 C-4.64 9.33 -7.28 9.66 -10 10 C-7.02911382 6.00073014 -3.87051275 3.07881696 0 0 Z " fill="#4EABDE" transform="translate(235,517)"/>
</svg>
